<?xml version="1.0" encoding="UTF-8"?>
<svg xmlns="http://www.w3.org/2000/svg" xmlns:xlink="http://www.w3.org/1999/xlink" width="31pt" height="10pt" viewBox="0 0 31 10" version="1.1">
<g id="surface1">
<path style=" stroke:none;fill-rule:nonzero;fill:rgb(65.499878%,66.299438%,67.498779%);fill-opacity:1;" d="M 2.898438 8.445313 L 2.710938 8.445313 L 2.710938 8.3125 L 2.898438 8.3125 L 2.898438 8.210938 C 2.898438 8.09375 2.921875 8.011719 2.96875 7.96875 C 3.015625 7.925781 3.097656 7.902344 3.214844 7.902344 L 3.363281 7.902344 L 3.363281 8.054688 L 3.296875 8.054688 C 3.21875 8.054688 3.167969 8.0625 3.144531 8.082031 C 3.117188 8.101563 3.105469 8.15625 3.105469 8.242188 L 3.105469 8.3125 L 3.332031 8.3125 L 3.332031 8.445313 L 3.105469 8.445313 L 3.105469 9.417969 L 2.898438 9.417969 Z M 4.132813 8.824219 C 3.964844 8.855469 3.84375 8.890625 3.773438 8.933594 C 3.707031 8.972656 3.671875 9.027344 3.671875 9.097656 C 3.671875 9.148438 3.695313 9.195313 3.734375 9.230469 C 3.777344 9.265625 3.828125 9.28125 3.890625 9.28125 C 3.933594 9.28125 3.972656 9.273438 4.011719 9.257813 C 4.050781 9.242188 4.09375 9.21875 4.132813 9.183594 Z M 4.132813 9.316406 C 4.089844 9.359375 4.039063 9.390625 3.984375 9.410156 C 3.929688 9.433594 3.875 9.445313 3.8125 9.445313 C 3.707031 9.445313 3.621094 9.414063 3.554688 9.351563 C 3.488281 9.289063 3.457031 9.207031 3.457031 9.105469 C 3.457031 9.003906 3.496094 8.917969 3.578125 8.859375 C 3.660156 8.800781 3.804688 8.753906 4.007813 8.71875 L 4.132813 8.695313 L 4.132813 8.605469 C 4.132813 8.550781 4.113281 8.511719 4.070313 8.484375 C 4.03125 8.453125 3.96875 8.441406 3.894531 8.441406 C 3.84375 8.441406 3.792969 8.449219 3.75 8.472656 C 3.703125 8.496094 3.660156 8.527344 3.621094 8.570313 L 3.523438 8.570313 L 3.523438 8.351563 C 3.589844 8.328125 3.652344 8.3125 3.710938 8.300781 C 3.769531 8.292969 3.828125 8.285156 3.886719 8.285156 C 4.039063 8.285156 4.152344 8.316406 4.226563 8.375 C 4.300781 8.4375 4.339844 8.53125 4.339844 8.65625 L 4.339844 9.417969 L 4.132813 9.417969 Z M 5.5 9.121094 L 5.5 9.335938 C 5.4375 9.375 5.378906 9.402344 5.320313 9.421875 C 5.261719 9.4375 5.203125 9.445313 5.140625 9.445313 C 4.980469 9.445313 4.851563 9.394531 4.753906 9.289063 C 4.65625 9.183594 4.609375 9.039063 4.609375 8.859375 C 4.609375 8.683594 4.65625 8.546875 4.753906 8.441406 C 4.851563 8.335938 4.976563 8.285156 5.136719 8.285156 C 5.191406 8.285156 5.246094 8.292969 5.300781 8.308594 C 5.359375 8.324219 5.425781 8.347656 5.5 8.386719 L 5.5 8.605469 L 5.40625 8.605469 C 5.367188 8.550781 5.328125 8.507813 5.285156 8.484375 C 5.242188 8.457031 5.191406 8.445313 5.132813 8.445313 C 5.035156 8.445313 4.957031 8.480469 4.902344 8.554688 C 4.847656 8.628906 4.820313 8.730469 4.820313 8.859375 C 4.820313 8.988281 4.847656 9.09375 4.902344 9.164063 C 4.957031 9.238281 5.03125 9.277344 5.125 9.277344 C 5.183594 9.277344 5.238281 9.261719 5.28125 9.238281 C 5.328125 9.210938 5.371094 9.171875 5.40625 9.121094 Z M 5.953125 8.3125 L 5.953125 9.417969 L 5.746094 9.417969 L 5.746094 8.3125 Z M 5.730469 7.871094 L 5.992188 7.871094 L 5.992188 8.054688 L 5.730469 8.054688 Z M 6.339844 7.871094 L 6.546875 7.871094 L 6.546875 9.417969 L 6.339844 9.417969 Z M 7.117188 8.3125 L 7.117188 9.417969 L 6.910156 9.417969 L 6.910156 8.3125 Z M 6.894531 7.871094 L 7.152344 7.871094 L 7.152344 8.054688 L 6.894531 8.054688 Z M 7.90625 9.417969 C 7.757813 9.417969 7.664063 9.398438 7.628906 9.367188 C 7.59375 9.335938 7.578125 9.253906 7.578125 9.117188 L 7.578125 8.445313 L 7.367188 8.445313 L 7.367188 8.3125 L 7.578125 8.3125 L 7.578125 8.019531 L 7.78125 8.019531 L 7.78125 8.3125 L 8.050781 8.3125 L 8.050781 8.445313 L 7.78125 8.445313 L 7.78125 9.125 C 7.78125 9.203125 7.792969 9.246094 7.8125 9.261719 C 7.832031 9.277344 7.882813 9.285156 7.960938 9.285156 L 8.050781 9.285156 L 8.050781 9.417969 Z M 8.855469 8.824219 C 8.683594 8.855469 8.5625 8.890625 8.496094 8.933594 C 8.425781 8.972656 8.394531 9.027344 8.394531 9.097656 C 8.394531 9.148438 8.414063 9.195313 8.457031 9.230469 C 8.496094 9.265625 8.550781 9.28125 8.613281 9.28125 C 8.652344 9.28125 8.691406 9.273438 8.730469 9.257813 C 8.769531 9.242188 8.8125 9.21875 8.855469 9.183594 Z M 8.855469 9.316406 C 8.808594 9.359375 8.757813 9.390625 8.703125 9.410156 C 8.648438 9.433594 8.59375 9.445313 8.53125 9.445313 C 8.425781 9.445313 8.339844 9.414063 8.273438 9.351563 C 8.207031 9.289063 8.175781 9.207031 8.175781 9.105469 C 8.175781 9.003906 8.214844 8.917969 8.296875 8.859375 C 8.378906 8.800781 8.523438 8.753906 8.726563 8.71875 L 8.855469 8.695313 L 8.855469 8.605469 C 8.855469 8.550781 8.832031 8.511719 8.789063 8.484375 C 8.75 8.453125 8.6875 8.441406 8.613281 8.441406 C 8.5625 8.441406 8.511719 8.449219 8.46875 8.472656 C 8.421875 8.496094 8.378906 8.527344 8.339844 8.570313 L 8.242188 8.570313 L 8.242188 8.351563 C 8.308594 8.328125 8.371094 8.3125 8.429688 8.300781 C 8.488281 8.292969 8.546875 8.285156 8.605469 8.285156 C 8.757813 8.285156 8.871094 8.316406 8.945313 8.375 C 9.019531 8.4375 9.058594 8.53125 9.058594 8.65625 L 9.058594 9.417969 L 8.855469 9.417969 Z M 9.398438 8.3125 L 9.605469 8.3125 L 9.605469 8.386719 L 9.625 8.394531 C 9.675781 8.351563 9.722656 8.324219 9.769531 8.308594 C 9.816406 8.289063 9.871094 8.28125 9.933594 8.28125 C 10.046875 8.28125 10.136719 8.316406 10.199219 8.386719 C 10.261719 8.457031 10.292969 8.558594 10.292969 8.691406 L 10.292969 9.417969 L 10.085938 9.417969 L 10.085938 8.746094 C 10.085938 8.628906 10.070313 8.550781 10.039063 8.507813 C 10.007813 8.460938 9.949219 8.441406 9.875 8.441406 C 9.828125 8.441406 9.785156 8.449219 9.742188 8.464844 C 9.699219 8.484375 9.652344 8.507813 9.605469 8.546875 L 9.605469 9.417969 L 9.398438 9.417969 Z M 11.316406 9.171875 L 11.316406 8.554688 C 11.273438 8.519531 11.230469 8.492188 11.1875 8.472656 C 11.148438 8.453125 11.105469 8.445313 11.0625 8.445313 C 10.96875 8.445313 10.898438 8.480469 10.851563 8.550781 C 10.804688 8.621094 10.78125 8.726563 10.78125 8.867188 C 10.78125 9.003906 10.804688 9.109375 10.851563 9.179688 C 10.898438 9.25 10.96875 9.285156 11.0625 9.285156 C 11.105469 9.285156 11.148438 9.277344 11.191406 9.257813 C 11.230469 9.238281 11.273438 9.210938 11.316406 9.171875 Z M 11.523438 9.417969 L 11.316406 9.417969 L 11.316406 9.332031 L 11.292969 9.324219 C 11.246094 9.367188 11.203125 9.398438 11.15625 9.421875 C 11.109375 9.441406 11.0625 9.449219 11.011719 9.449219 C 10.878906 9.449219 10.769531 9.398438 10.6875 9.292969 C 10.609375 9.1875 10.566406 9.046875 10.566406 8.863281 C 10.566406 8.6875 10.609375 8.542969 10.6875 8.4375 C 10.769531 8.332031 10.875 8.28125 11.007813 8.28125 C 11.058594 8.28125 11.109375 8.289063 11.15625 8.308594 C 11.203125 8.332031 11.246094 8.363281 11.292969 8.40625 L 11.316406 8.398438 L 11.316406 7.871094 L 11.523438 7.871094 Z M 12.300781 8.441406 C 12.207031 8.441406 12.132813 8.476563 12.082031 8.546875 C 12.03125 8.617188 12.003906 8.71875 12.003906 8.847656 C 12.003906 8.992188 12.03125 9.101563 12.082031 9.175781 C 12.132813 9.25 12.207031 9.289063 12.308594 9.289063 C 12.402344 9.289063 12.476563 9.25 12.527344 9.175781 C 12.582031 9.101563 12.609375 8.996094 12.609375 8.859375 C 12.609375 8.722656 12.582031 8.617188 12.53125 8.546875 C 12.476563 8.476563 12.402344 8.441406 12.300781 8.441406 Z M 11.792969 8.847656 C 11.792969 8.675781 11.839844 8.539063 11.929688 8.4375 C 12.023438 8.332031 12.144531 8.28125 12.300781 8.28125 C 12.464844 8.28125 12.59375 8.332031 12.683594 8.433594 C 12.773438 8.535156 12.820313 8.675781 12.820313 8.859375 C 12.820313 9.046875 12.773438 9.191406 12.683594 9.292969 C 12.59375 9.398438 12.46875 9.449219 12.308594 9.449219 C 12.144531 9.449219 12.019531 9.394531 11.925781 9.289063 C 11.835938 9.183594 11.792969 9.035156 11.792969 8.847656 Z M 14.292969 8.824219 C 14.121094 8.855469 14.003906 8.890625 13.933594 8.933594 C 13.867188 8.972656 13.832031 9.027344 13.832031 9.097656 C 13.832031 9.148438 13.851563 9.195313 13.894531 9.230469 C 13.9375 9.265625 13.988281 9.28125 14.050781 9.28125 C 14.09375 9.28125 14.132813 9.273438 14.171875 9.257813 C 14.210938 9.242188 14.25 9.21875 14.292969 9.183594 Z M 14.292969 9.316406 C 14.25 9.359375 14.199219 9.390625 14.144531 9.410156 C 14.089844 9.433594 14.03125 9.445313 13.96875 9.445313 C 13.863281 9.445313 13.78125 9.414063 13.714844 9.351563 C 13.648438 9.289063 13.613281 9.207031 13.613281 9.105469 C 13.613281 9.003906 13.65625 8.917969 13.738281 8.859375 C 13.820313 8.800781 13.960938 8.753906 14.167969 8.71875 L 14.292969 8.695313 L 14.292969 8.605469 C 14.292969 8.550781 14.273438 8.511719 14.230469 8.484375 C 14.1875 8.453125 14.128906 8.441406 14.054688 8.441406 C 14.003906 8.441406 13.953125 8.449219 13.90625 8.472656 C 13.863281 8.496094 13.820313 8.527344 13.78125 8.570313 L 13.683594 8.570313 L 13.683594 8.351563 C 13.746094 8.328125 13.808594 8.3125 13.867188 8.300781 C 13.925781 8.292969 13.984375 8.285156 14.042969 8.285156 C 14.199219 8.285156 14.3125 8.316406 14.386719 8.375 C 14.460938 8.4375 14.496094 8.53125 14.496094 8.65625 L 14.496094 9.417969 L 14.292969 9.417969 Z M 16.277344 9.121094 L 16.277344 9.335938 C 16.214844 9.375 16.152344 9.402344 16.09375 9.421875 C 16.035156 9.4375 15.976563 9.445313 15.914063 9.445313 C 15.753906 9.445313 15.625 9.394531 15.527344 9.289063 C 15.433594 9.183594 15.382813 9.039063 15.382813 8.859375 C 15.382813 8.683594 15.433594 8.546875 15.527344 8.441406 C 15.625 8.335938 15.753906 8.285156 15.910156 8.285156 C 15.964844 8.285156 16.019531 8.292969 16.078125 8.308594 C 16.132813 8.324219 16.199219 8.347656 16.277344 8.386719 L 16.277344 8.605469 L 16.179688 8.605469 C 16.140625 8.550781 16.101563 8.507813 16.058594 8.484375 C 16.015625 8.457031 15.964844 8.445313 15.90625 8.445313 C 15.808594 8.445313 15.734375 8.480469 15.679688 8.554688 C 15.625 8.628906 15.597656 8.730469 15.597656 8.859375 C 15.597656 8.988281 15.621094 9.09375 15.675781 9.164063 C 15.730469 9.238281 15.804688 9.277344 15.902344 9.277344 C 15.960938 9.277344 16.011719 9.261719 16.058594 9.238281 C 16.101563 9.210938 16.144531 9.171875 16.183594 9.121094 Z M 16.957031 8.441406 C 16.863281 8.441406 16.789063 8.476563 16.734375 8.546875 C 16.683594 8.617188 16.65625 8.71875 16.65625 8.847656 C 16.65625 8.992188 16.683594 9.101563 16.734375 9.175781 C 16.789063 9.25 16.863281 9.289063 16.960938 9.289063 C 17.054688 9.289063 17.128906 9.25 17.183594 9.175781 C 17.234375 9.101563 17.261719 8.996094 17.261719 8.859375 C 17.261719 8.722656 17.234375 8.617188 17.183594 8.546875 C 17.132813 8.476563 17.054688 8.441406 16.957031 8.441406 Z M 16.445313 8.847656 C 16.445313 8.675781 16.492188 8.539063 16.585938 8.4375 C 16.675781 8.332031 16.800781 8.28125 16.953125 8.28125 C 17.117188 8.28125 17.246094 8.332031 17.339844 8.433594 C 17.429688 8.535156 17.472656 8.675781 17.472656 8.859375 C 17.472656 9.046875 17.429688 9.191406 17.339844 9.292969 C 17.246094 9.398438 17.121094 9.449219 16.960938 9.449219 C 16.796875 9.449219 16.671875 9.394531 16.582031 9.289063 C 16.492188 9.183594 16.445313 9.035156 16.445313 8.847656 Z M 17.75 8.3125 L 17.957031 8.3125 L 17.957031 8.386719 L 17.980469 8.394531 C 18.023438 8.355469 18.070313 8.324219 18.113281 8.308594 C 18.160156 8.289063 18.210938 8.28125 18.265625 8.28125 C 18.34375 8.28125 18.414063 8.296875 18.46875 8.328125 C 18.527344 8.355469 18.570313 8.402344 18.601563 8.460938 C 18.65625 8.394531 18.710938 8.347656 18.765625 8.324219 C 18.820313 8.296875 18.886719 8.28125 18.960938 8.28125 C 19.082031 8.28125 19.167969 8.316406 19.230469 8.386719 C 19.289063 8.457031 19.320313 8.5625 19.320313 8.703125 L 19.320313 9.417969 L 19.117188 9.417969 L 19.117188 8.746094 C 19.117188 8.640625 19.097656 8.5625 19.0625 8.511719 C 19.027344 8.464844 18.972656 8.441406 18.894531 8.441406 C 18.851563 8.441406 18.808594 8.449219 18.765625 8.464844 C 18.722656 8.484375 18.675781 8.511719 18.625 8.546875 L 18.625 9.417969 L 18.433594 9.417969 L 18.433594 8.746094 C 18.433594 8.636719 18.414063 8.554688 18.382813 8.511719 C 18.347656 8.464844 18.289063 8.441406 18.210938 8.441406 C 18.167969 8.441406 18.125 8.449219 18.082031 8.464844 C 18.042969 8.484375 18 8.507813 17.957031 8.546875 L 17.957031 9.417969 L 17.75 9.417969 Z M 20.554688 9.417969 L 20.347656 9.417969 L 20.347656 9.339844 L 20.324219 9.335938 C 20.277344 9.375 20.230469 9.40625 20.183594 9.421875 C 20.136719 9.441406 20.082031 9.449219 20.019531 9.449219 C 19.941406 9.449219 19.875 9.429688 19.816406 9.394531 C 19.761719 9.355469 19.71875 9.304688 19.6875 9.238281 C 19.679688 9.214844 19.671875 9.179688 19.667969 9.140625 C 19.664063 9.101563 19.660156 9.027344 19.660156 8.914063 L 19.660156 8.3125 L 19.863281 8.3125 L 19.863281 8.984375 C 19.863281 9.101563 19.882813 9.179688 19.914063 9.222656 C 19.945313 9.265625 20 9.289063 20.078125 9.289063 C 20.121094 9.289063 20.164063 9.28125 20.207031 9.265625 C 20.25 9.246094 20.296875 9.21875 20.347656 9.183594 L 20.347656 8.3125 L 20.554688 8.3125 Z M 20.894531 8.3125 L 21.105469 8.3125 L 21.105469 8.386719 L 21.125 8.394531 C 21.171875 8.351563 21.21875 8.324219 21.265625 8.308594 C 21.316406 8.289063 21.367188 8.28125 21.429688 8.28125 C 21.546875 8.28125 21.636719 8.316406 21.699219 8.386719 C 21.757813 8.457031 21.789063 8.558594 21.789063 8.691406 L 21.789063 9.417969 L 21.585938 9.417969 L 21.585938 8.746094 C 21.585938 8.628906 21.570313 8.550781 21.535156 8.507813 C 21.503906 8.460938 21.449219 8.441406 21.371094 8.441406 C 21.328125 8.441406 21.285156 8.449219 21.242188 8.464844 C 21.199219 8.484375 21.152344 8.507813 21.101563 8.546875 L 21.101563 9.417969 L 20.894531 9.417969 Z M 22.339844 8.3125 L 22.339844 9.417969 L 22.132813 9.417969 L 22.132813 8.3125 Z M 22.117188 7.871094 L 22.378906 7.871094 L 22.378906 8.054688 L 22.117188 8.054688 Z M 23.53125 9.121094 L 23.53125 9.335938 C 23.46875 9.375 23.410156 9.402344 23.351563 9.421875 C 23.292969 9.4375 23.230469 9.445313 23.171875 9.445313 C 23.007813 9.445313 22.878906 9.394531 22.785156 9.289063 C 22.6875 9.183594 22.640625 9.039063 22.640625 8.859375 C 22.640625 8.683594 22.6875 8.546875 22.785156 8.441406 C 22.882813 8.335938 23.007813 8.285156 23.164063 8.285156 C 23.21875 8.285156 23.277344 8.292969 23.332031 8.308594 C 23.386719 8.324219 23.453125 8.347656 23.53125 8.386719 L 23.53125 8.605469 L 23.433594 8.605469 C 23.398438 8.550781 23.355469 8.507813 23.3125 8.484375 C 23.269531 8.457031 23.21875 8.445313 23.160156 8.445313 C 23.0625 8.445313 22.988281 8.480469 22.933594 8.554688 C 22.878906 8.628906 22.851563 8.730469 22.851563 8.859375 C 22.851563 8.988281 22.878906 9.09375 22.933594 9.164063 C 22.984375 9.238281 23.0625 9.277344 23.15625 9.277344 C 23.214844 9.277344 23.269531 9.261719 23.3125 9.238281 C 23.359375 9.210938 23.402344 9.171875 23.4375 9.121094 Z M 24.355469 8.824219 C 24.183594 8.855469 24.066406 8.890625 23.996094 8.933594 C 23.929688 8.972656 23.894531 9.027344 23.894531 9.097656 C 23.894531 9.148438 23.914063 9.195313 23.957031 9.230469 C 24 9.265625 24.050781 9.28125 24.113281 9.28125 C 24.152344 9.28125 24.195313 9.273438 24.234375 9.257813 C 24.273438 9.242188 24.3125 9.21875 24.355469 9.183594 Z M 24.355469 9.316406 C 24.308594 9.359375 24.261719 9.390625 24.207031 9.410156 C 24.152344 9.433594 24.09375 9.445313 24.03125 9.445313 C 23.925781 9.445313 23.839844 9.414063 23.773438 9.351563 C 23.710938 9.289063 23.675781 9.207031 23.675781 9.105469 C 23.675781 9.003906 23.71875 8.917969 23.800781 8.859375 C 23.882813 8.800781 24.023438 8.753906 24.226563 8.71875 L 24.355469 8.695313 L 24.355469 8.605469 C 24.355469 8.550781 24.332031 8.511719 24.292969 8.484375 C 24.25 8.453125 24.191406 8.441406 24.113281 8.441406 C 24.0625 8.441406 24.015625 8.449219 23.96875 8.472656 C 23.921875 8.496094 23.882813 8.527344 23.84375 8.570313 L 23.742188 8.570313 L 23.742188 8.351563 C 23.808594 8.328125 23.871094 8.3125 23.929688 8.300781 C 23.988281 8.292969 24.046875 8.285156 24.105469 8.285156 C 24.261719 8.285156 24.375 8.316406 24.449219 8.375 C 24.523438 8.4375 24.558594 8.53125 24.558594 8.65625 L 24.558594 9.417969 L 24.355469 9.417969 Z M 25.722656 9.121094 L 25.722656 9.335938 C 25.660156 9.375 25.597656 9.402344 25.539063 9.421875 C 25.480469 9.4375 25.421875 9.445313 25.363281 9.445313 C 25.199219 9.445313 25.070313 9.394531 24.972656 9.289063 C 24.878906 9.183594 24.828125 9.039063 24.828125 8.859375 C 24.828125 8.683594 24.878906 8.546875 24.976563 8.441406 C 25.070313 8.335938 25.199219 8.285156 25.355469 8.285156 C 25.410156 8.285156 25.46875 8.292969 25.523438 8.308594 C 25.578125 8.324219 25.644531 8.347656 25.722656 8.386719 L 25.722656 8.605469 L 25.625 8.605469 C 25.585938 8.550781 25.546875 8.507813 25.503906 8.484375 C 25.460938 8.457031 25.410156 8.445313 25.351563 8.445313 C 25.253906 8.445313 25.179688 8.480469 25.125 8.554688 C 25.070313 8.628906 25.042969 8.730469 25.042969 8.859375 C 25.042969 8.988281 25.070313 9.09375 25.121094 9.164063 C 25.175781 9.238281 25.253906 9.277344 25.347656 9.277344 C 25.40625 9.277344 25.457031 9.261719 25.503906 9.238281 C 25.550781 9.210938 25.589844 9.171875 25.628906 9.121094 Z M 25.273438 9.417969 L 25.371094 9.417969 L 25.371094 9.527344 L 25.410156 9.527344 C 25.5 9.527344 25.566406 9.542969 25.617188 9.578125 C 25.664063 9.609375 25.6875 9.660156 25.6875 9.71875 C 25.6875 9.792969 25.660156 9.84375 25.609375 9.882813 C 25.554688 9.917969 25.476563 9.9375 25.375 9.9375 C 25.332031 9.9375 25.28125 9.933594 25.226563 9.925781 C 25.171875 9.914063 25.113281 9.902344 25.046875 9.886719 L 25.042969 9.777344 C 25.109375 9.792969 25.167969 9.800781 25.226563 9.808594 C 25.28125 9.816406 25.328125 9.820313 25.367188 9.820313 C 25.414063 9.820313 25.449219 9.8125 25.472656 9.796875 C 25.496094 9.78125 25.507813 9.757813 25.507813 9.730469 C 25.507813 9.695313 25.492188 9.671875 25.46875 9.65625 C 25.441406 9.640625 25.402344 9.632813 25.351563 9.632813 C 25.328125 9.632813 25.3125 9.632813 25.300781 9.632813 C 25.292969 9.636719 25.28125 9.636719 25.273438 9.636719 Z M 26.546875 8.824219 C 26.375 8.855469 26.253906 8.890625 26.1875 8.933594 C 26.117188 8.972656 26.085938 9.027344 26.085938 9.097656 C 26.085938 9.148438 26.105469 9.195313 26.148438 9.230469 C 26.1875 9.265625 26.242188 9.28125 26.304688 9.28125 C 26.34375 9.28125 26.386719 9.273438 26.421875 9.257813 C 26.464844 9.242188 26.503906 9.21875 26.546875 9.183594 Z M 26.546875 9.316406 C 26.5 9.359375 26.449219 9.390625 26.398438 9.410156 C 26.34375 9.433594 26.285156 9.445313 26.222656 9.445313 C 26.117188 9.445313 26.03125 9.414063 25.964844 9.351563 C 25.898438 9.289063 25.867188 9.207031 25.867188 9.105469 C 25.867188 9.003906 25.90625 8.917969 25.988281 8.859375 C 26.070313 8.800781 26.214844 8.753906 26.417969 8.71875 L 26.546875 8.695313 L 26.546875 8.605469 C 26.546875 8.550781 26.523438 8.511719 26.480469 8.484375 C 26.441406 8.453125 26.382813 8.441406 26.304688 8.441406 C 26.253906 8.441406 26.207031 8.449219 26.160156 8.472656 C 26.113281 8.496094 26.070313 8.527344 26.03125 8.570313 L 25.933594 8.570313 L 25.933594 8.351563 C 26 8.328125 26.0625 8.3125 26.121094 8.300781 C 26.179688 8.292969 26.238281 8.285156 26.296875 8.285156 C 26.449219 8.285156 26.566406 8.316406 26.640625 8.375 C 26.714844 8.4375 26.75 8.53125 26.75 8.65625 L 26.75 9.417969 L 26.546875 9.417969 Z M 26.734375 7.765625 C 26.710938 7.84375 26.675781 7.902344 26.636719 7.941406 C 26.59375 7.980469 26.542969 8 26.484375 8 C 26.457031 8 26.414063 7.992188 26.363281 7.980469 C 26.3125 7.964844 26.257813 7.945313 26.199219 7.921875 C 26.1875 7.933594 26.179688 7.945313 26.167969 7.957031 C 26.160156 7.96875 26.152344 7.988281 26.144531 8.007813 L 25.984375 8.007813 C 26.003906 7.929688 26.035156 7.875 26.078125 7.832031 C 26.121094 7.792969 26.175781 7.773438 26.238281 7.773438 C 26.285156 7.773438 26.335938 7.789063 26.398438 7.8125 C 26.457031 7.832031 26.496094 7.847656 26.515625 7.851563 C 26.527344 7.835938 26.539063 7.824219 26.546875 7.808594 C 26.558594 7.792969 26.566406 7.78125 26.570313 7.765625 Z M 27.53125 8.441406 C 27.4375 8.441406 27.363281 8.476563 27.308594 8.546875 C 27.257813 8.617188 27.234375 8.71875 27.234375 8.847656 C 27.234375 8.992188 27.257813 9.101563 27.308594 9.175781 C 27.363281 9.25 27.4375 9.289063 27.535156 9.289063 C 27.628906 9.289063 27.703125 9.25 27.757813 9.175781 C 27.808594 9.101563 27.835938 8.996094 27.835938 8.859375 C 27.835938 8.722656 27.808594 8.617188 27.757813 8.546875 C 27.707031 8.476563 27.632813 8.441406 27.53125 8.441406 Z M 27.019531 8.847656 C 27.019531 8.675781 27.066406 8.539063 27.160156 8.4375 C 27.25 8.332031 27.375 8.28125 27.527344 8.28125 C 27.695313 8.28125 27.820313 8.332031 27.910156 8.433594 C 28.003906 8.535156 28.046875 8.675781 28.046875 8.859375 C 28.046875 9.046875 28.003906 9.191406 27.914063 9.292969 C 27.824219 9.398438 27.695313 9.449219 27.535156 9.449219 C 27.371094 9.449219 27.246094 9.394531 27.15625 9.289063 C 27.066406 9.183594 27.019531 9.035156 27.019531 8.847656 "/>
<path style=" stroke:none;fill-rule:evenodd;fill:rgb(3.09906%,51.399231%,37.298584%);fill-opacity:1;" d="M 0 2.433594 L 1.582031 2.433594 L 1.582031 6.570313 L 0 6.570313 Z M 0.792969 0.867188 C 1.191406 0.867188 1.515625 1.191406 1.515625 1.59375 C 1.515625 1.992188 1.191406 2.316406 0.792969 2.316406 C 0.394531 2.316406 0.0703125 1.992188 0.0703125 1.59375 C 0.0703125 1.191406 0.394531 0.867188 0.792969 0.867188 Z M 5.691406 1.722656 L 7.207031 1.722656 L 7.207031 2.578125 L 8.121094 2.578125 L 8.121094 3.523438 L 7.207031 3.523438 L 7.207031 4.441406 C 7.207031 4.945313 7.167969 5.296875 7.675781 5.296875 L 8.121094 5.296875 L 8.121094 6.570313 L 7.128906 6.570313 C 6.039063 6.570313 5.703125 5.746094 5.699219 5.039063 Z M 12.980469 1.011719 L 14.464844 1.011719 L 14.464844 6.570313 L 12.980469 6.570313 Z M 14.867188 1.011719 L 16.351563 1.011719 L 16.351563 2.21875 L 16.347656 2.21875 L 16.347656 3.375 L 16.800781 2.441406 C 16.859375 2.4375 16.917969 2.433594 16.976563 2.433594 C 18.140625 2.433594 19.082031 3.378906 19.082031 4.542969 C 19.082031 5.707031 18.140625 6.652344 16.976563 6.652344 C 15.847656 6.652344 14.925781 5.765625 14.871094 4.652344 Z M 16.972656 3.90625 C 17.332031 3.90625 17.621094 4.195313 17.621094 4.550781 C 17.621094 4.910156 17.332031 5.199219 16.972656 5.199219 C 16.617188 5.199219 16.328125 4.910156 16.328125 4.550781 C 16.328125 4.195313 16.617188 3.90625 16.972656 3.90625 Z M 3.609375 2.433594 C 4.648438 2.433594 5.335938 3.230469 5.335938 4.195313 L 5.335938 6.570313 L 3.992188 6.570313 L 3.992188 4.195313 L 3.988281 4.195313 C 3.984375 3.992188 3.816406 3.828125 3.609375 3.828125 C 3.402344 3.828125 3.238281 3.992188 3.234375 4.195313 L 3.226563 4.195313 L 3.226563 6.570313 L 1.882813 6.570313 L 1.882813 4.195313 C 1.882813 3.230469 2.558594 2.433594 3.609375 2.433594 Z M 10.449219 2.367188 C 11.652344 2.367188 12.628906 3.339844 12.628906 4.542969 L 12.628906 4.59375 C 11.652344 4.59375 10.675781 4.59375 9.699219 4.59375 C 9.746094 4.988281 10.0625 5.292969 10.449219 5.292969 C 10.664063 5.292969 10.859375 5.199219 10.996094 5.042969 L 12.226563 5.800781 C 11.832031 6.355469 11.183594 6.71875 10.449219 6.71875 C 9.242188 6.71875 8.269531 5.742188 8.269531 4.542969 C 8.269531 3.339844 9.242188 2.367188 10.449219 2.367188 Z M 11.167969 4.25 C 11.074219 3.921875 10.789063 3.683594 10.449219 3.683594 C 10.109375 3.683594 9.824219 3.921875 9.726563 4.25 Z M 26.457031 6.570313 L 24.972656 6.570313 C 24.972656 5.78125 24.976563 6.414063 24.976563 5.621094 L 24.523438 6.558594 C 24.464844 6.5625 24.40625 6.566406 24.351563 6.566406 C 23.1875 6.566406 22.242188 5.621094 22.242188 4.457031 C 22.242188 3.292969 23.1875 2.347656 24.351563 2.347656 C 25.476563 2.347656 26.398438 3.234375 26.457031 4.34375 Z M 24.351563 5.09375 C 23.992188 5.09375 23.703125 4.804688 23.703125 4.449219 C 23.703125 4.089844 23.992188 3.800781 24.351563 3.800781 C 24.707031 3.800781 24.996094 4.089844 24.996094 4.449219 C 24.996094 4.804688 24.707031 5.09375 24.351563 5.09375 Z M 22.566406 2.976563 L 21.621094 3.9375 C 21.550781 3.820313 21.414063 3.738281 21.257813 3.738281 C 21.027344 3.738281 20.84375 3.910156 20.839844 4.121094 L 20.832031 4.121094 L 20.832031 6.570313 L 19.34375 6.570313 L 19.34375 4.121094 C 19.34375 2.351563 21.507813 1.789063 22.566406 2.976563 Z M 26.867188 6.570313 L 26.867188 5.195313 C 26.867188 5.195313 27.40625 5.289063 27.71875 4.863281 C 28.195313 4.222656 27.878906 3.433594 28.523438 2.832031 C 28.800781 2.574219 29.164063 2.433594 29.578125 2.433594 C 30.496094 2.433594 30.679688 2.433594 30.679688 2.433594 L 30.679688 3.722656 C 30.679688 3.722656 30.597656 3.722656 30.238281 3.722656 C 29.042969 3.722656 29.300781 5.449219 28.785156 6.066406 C 28.542969 6.359375 28.070313 6.570313 27.636719 6.570313 C 26.765625 6.570313 26.867188 6.570313 26.867188 6.570313 "/>
</g>
</svg>
